<svg width="667" height="366" viewBox="0 0 667 366" fill="none" xmlns="http://www.w3.org/2000/svg">
<path fill-rule="evenodd" clip-rule="evenodd" d="M422.635 68.7539H218.353H142.822H85.9429C76.8079 68.7539 69.3598 76.2114 69.3598 85.2873V87.9212C69.3598 97.0288 76.8397 104.455 85.9429 104.455H122.292V104.55H220.168C229.303 104.55 236.751 112.007 236.751 121.083V123.717C236.751 132.825 229.271 140.25 220.168 140.25H122.292V140.346H37.976C28.8409 140.346 21.3928 147.803 21.3928 156.879V159.513C21.3928 168.62 28.8727 176.046 37.976 176.046H122.292V176.141H148.679C157.814 176.141 165.262 183.599 165.262 192.675V195.309C165.262 204.416 157.782 211.842 148.679 211.842H122.292V211.937H102.399C93.2637 211.937 85.8156 219.395 85.8156 228.471V231.104C85.8156 240.212 93.2955 247.638 102.399 247.638H157.909V271.756H234.427C243.626 260.934 257.408 254.016 272.877 254.016C288.346 254.016 302.16 260.934 311.327 271.756H443.197V89.254C443.197 77.925 433.998 68.7539 422.635 68.7539ZM17.3521 102.741C26.4931 102.741 33.9034 95.3528 33.9034 86.2392C33.9034 77.1256 26.4931 69.7375 17.3521 69.7375C8.21106 69.7375 0.800781 77.1256 0.800781 86.2392C0.800781 95.3528 8.21106 102.741 17.3521 102.741ZM39.8218 242.531C45.6784 242.531 50.4528 237.771 50.4528 231.932C50.4528 226.061 45.6784 221.333 39.8218 221.333C33.9651 221.333 29.1907 226.093 29.1907 231.932C29.1907 237.771 33.9651 242.531 39.8218 242.531Z" fill="url(#paint0_linear)"/>
<path fill-rule="evenodd" clip-rule="evenodd" d="M232.446 289.717C242.418 278.445 256.727 271.977 271.858 271.977C286.995 271.977 301.305 278.407 311.267 289.685H458.602V109.31C458.602 99.1865 450.326 90.9674 440.172 90.9674H171.595C170.418 90.9674 169.463 90.0154 169.463 88.8413C169.463 87.6671 170.418 86.7151 171.595 86.7151H440.204C452.713 86.7151 462.899 96.8699 462.899 109.341V289.685H478.783V113.213C478.783 104.137 486.199 96.7746 495.27 96.7746H595.947C612.721 96.7746 627.999 107.279 633.983 122.892L664.094 202.893C665.876 207.526 666.767 212.413 666.767 217.363V298.994C666.789 299.263 666.8 299.534 666.8 299.808V312.121C666.768 318.69 661.389 324.021 654.8 324.021H594.483C593.338 324.021 592.383 323.101 592.351 321.958C592.276 318.842 591.901 315.786 591.236 312.816C591.221 312.772 591.207 312.729 591.195 312.684C591.19 312.668 591.186 312.651 591.182 312.635C591.179 312.622 591.176 312.61 591.173 312.597C586.303 291.525 567.046 276.261 545.37 276.261C523.694 276.261 504.437 291.557 499.567 312.597C499.544 312.698 499.513 312.796 499.476 312.891C498.829 315.827 498.464 318.848 498.39 321.927C498.327 323.101 497.372 324.021 496.226 324.021H321.769C320.623 324.021 319.668 323.101 319.636 321.927C319.387 311.523 315.785 301.788 309.277 293.703C309.049 293.577 308.847 293.409 308.685 293.207C299.518 282.418 286.086 276.23 271.858 276.23C257.831 276.23 244.577 282.245 235.422 292.754C235.345 292.914 235.247 293.066 235.127 293.207C228.315 301.395 224.591 311.327 224.336 321.958C224.305 323.101 223.35 324.021 222.204 324.021H189.897C184.581 324.021 180.253 319.705 180.253 314.406V299.332C180.253 294.032 184.581 289.717 189.897 289.717H232.446ZM662.502 217.363V291.556C660.853 290.397 658.842 289.717 656.678 289.717H584.264C574.792 278.714 560.8 271.977 545.402 271.977C529.97 271.977 515.984 278.693 506.517 289.685H483.08V113.213C483.08 106.485 488.554 101.027 495.302 101.027H595.979C610.97 101.027 624.657 110.42 630.004 124.383L660.115 204.384C661.707 208.541 662.502 212.921 662.502 217.363ZM494.814 314.247C494.498 316.064 494.278 317.906 494.157 319.769H323.806C323.233 310.439 320.146 301.617 314.766 294.001H478.783V312.121C478.783 313.295 479.738 314.247 480.915 314.247H494.814ZM495.754 309.963H483.08V294.001H503.185C502.975 294.306 502.768 294.613 502.564 294.924C499.457 299.561 497.171 304.625 495.754 309.963ZM662.17 314.247H595.863C596.18 316.063 596.4 317.906 596.521 319.769H654.8C658.294 319.769 661.245 317.435 662.17 314.247ZM594.928 309.963H662.471V299.808C662.471 296.603 659.861 294.001 656.646 294.001H587.573C590.855 298.753 593.371 304.125 594.928 309.963ZM545.371 365.338C522.008 365.338 503.038 346.393 503.038 323.132C503.038 299.871 522.04 280.926 545.371 280.926C568.702 280.926 587.704 299.871 587.704 323.132C587.704 346.393 568.702 365.338 545.371 365.338ZM545.371 284.734C524.141 284.734 506.858 301.966 506.858 323.132C506.858 344.299 524.141 361.53 545.371 361.53C566.601 361.53 583.885 344.299 583.885 323.132C583.885 301.966 566.601 284.734 545.371 284.734ZM525.19 323.132C525.19 334.207 534.23 343.252 545.37 343.252C556.479 343.252 565.55 334.207 565.55 323.132C565.55 312.057 556.51 303.013 545.37 303.013C534.262 303.013 525.19 312.057 525.19 323.132ZM529.01 323.101C529.01 314.12 536.331 306.789 545.37 306.789C554.378 306.789 561.73 314.12 561.73 323.101C561.73 332.081 554.41 339.412 545.37 339.412C536.362 339.412 529.01 332.081 529.01 323.101ZM510.485 207.621H543.333C548.457 207.621 552.659 203.464 552.691 198.323V125.431C552.691 120.322 548.489 116.133 543.333 116.133H510.485C505.36 116.133 501.159 120.29 501.159 125.431V198.323C501.159 203.433 505.329 207.621 510.485 207.621ZM505.392 125.431C505.392 122.638 507.652 120.385 510.453 120.385H543.301C546.102 120.385 548.362 122.638 548.362 125.431V198.323C548.362 201.116 546.102 203.369 543.301 203.369H510.453C507.652 203.369 505.392 201.116 505.392 198.323V125.431ZM631.661 207.621H570.326C565.17 207.621 561 203.433 561 198.323V125.431C561 120.29 565.201 116.133 570.326 116.133H595.917C604.67 116.133 612.691 121.623 615.81 129.778L640.383 195.055C641.465 197.911 641.051 201.116 639.3 203.623C637.582 206.13 634.717 207.621 631.661 207.621ZM570.326 120.385C567.525 120.385 565.265 122.638 565.265 125.431V198.323C565.265 201.116 567.525 203.369 570.326 203.369H631.661C633.348 203.369 634.876 202.576 635.831 201.179C636.786 199.783 637.009 198.101 636.404 196.515L611.832 131.27C609.349 124.764 602.951 120.385 595.949 120.385H570.326ZM229.845 323.135C229.845 345.92 248.434 364.484 271.319 364.484C294.204 364.484 312.793 345.92 312.793 323.135C312.793 300.35 294.172 281.786 271.319 281.786C248.434 281.786 229.845 300.35 229.845 323.135ZM233.665 323.135C233.665 302.445 250.566 285.594 271.319 285.594C292.104 285.594 308.973 302.445 308.973 323.135C308.973 343.826 292.072 360.676 271.319 360.676C250.566 360.676 233.665 343.826 233.665 323.135ZM271.317 342.871C260.4 342.871 251.519 334.017 251.519 323.132C251.519 312.248 260.4 303.394 271.317 303.394C282.235 303.394 291.115 312.248 291.115 323.132C291.115 334.017 282.235 342.871 271.317 342.871ZM271.317 307.202C262.5 307.202 255.339 314.342 255.339 323.132C255.339 331.923 262.5 339.063 271.317 339.063C280.134 339.063 287.295 331.923 287.295 323.132C287.295 314.342 280.134 307.202 271.317 307.202ZM189.897 294.001C186.937 294.001 184.518 296.412 184.518 299.364V314.437C184.518 317.388 186.937 319.8 189.897 319.8H220.135C220.74 310.471 223.827 301.648 229.175 294.032H189.897V294.001Z" fill="url(#paint1_linear)"/>
<path d="M38.0728 157.259C41.2875 157.259 41.2875 152.309 38.0728 152.309C34.8898 152.277 34.8898 157.259 38.0728 157.259Z" fill="white"/>
<path d="M47.9736 164.269C51.1884 164.269 51.1884 159.319 47.9736 159.319C44.7588 159.319 44.7588 164.269 47.9736 164.269Z" fill="white"/>
<path d="M412.101 252.175C411.623 252.175 411.146 252.175 410.7 252.175C407.485 252.175 407.485 257.125 410.7 257.125C411.178 257.125 411.655 257.125 412.101 257.125C415.284 257.157 415.315 252.175 412.101 252.175Z" fill="white"/>
<path d="M426.204 241.671C429.419 241.671 429.419 236.721 426.204 236.721C423.021 236.721 422.989 241.671 426.204 241.671Z" fill="white"/>
<path d="M426.204 241.671C429.419 241.671 429.419 236.721 426.204 236.721C423.021 236.721 422.989 241.671 426.204 241.671Z" fill="white"/>
<path d="M410.668 240.275C413.883 240.275 413.883 235.324 410.668 235.324C407.486 235.292 407.486 240.275 410.668 240.275Z" fill="white"/>
<path d="M90.3056 88.3015C93.5204 88.3015 93.5204 83.351 90.3056 83.351C87.0908 83.3192 87.0908 88.3015 90.3056 88.3015Z" fill="white"/>
<path d="M283.322 154.803H267.221V162.984H283.322V154.803Z" fill="white"/>
<path d="M283.322 187.525H267.221V195.706H283.322V187.525Z" fill="white"/>
<path d="M283.323 171.164H259.639V179.345H283.323V171.164Z" fill="white"/>
<path d="M345.69 121.33C315.83 121.33 291.537 145.521 291.537 175.255C291.537 204.989 315.83 229.179 345.69 229.179C375.55 229.179 399.842 204.989 399.842 175.255C399.842 145.521 375.55 121.33 345.69 121.33ZM345.69 220.999C320.36 220.999 299.753 200.478 299.753 175.255C299.753 150.031 320.36 129.511 345.69 129.511C371.02 129.511 391.627 150.031 391.627 175.255C391.627 200.478 371.02 220.999 345.69 220.999Z" fill="white"/>
<path d="M348.342 177.287V150.865H340.127V181.612L361.297 195.977L365.923 189.217L348.342 177.287Z" fill="white"/>
<rect x="161.227" width="118.634" height="29.6585" rx="14.8292" fill="#FEFFC0"/>
<rect x="30.459" y="304.673" width="118.634" height="17.5255" rx="8.76273" fill="#FEFFC0"/>
<path fill-rule="evenodd" clip-rule="evenodd" d="M628.18 226.598C628.652 226.351 629.245 226.515 629.505 226.965L639.203 243.788C640.008 245.184 640.008 246.877 639.203 248.273L629.505 265.096C629.245 265.546 628.652 265.711 628.18 265.463C627.707 265.215 627.535 264.649 627.795 264.199L637.493 247.376C637.976 246.538 637.976 245.523 637.493 244.685L627.795 227.862C627.535 227.412 627.707 226.846 628.18 226.598Z" fill="#0095F6"/>
<path fill-rule="evenodd" clip-rule="evenodd" d="M627.549 225.405C628.635 224.835 630.033 225.189 630.669 226.292L640.367 243.114C641.412 244.928 641.412 247.133 640.367 248.947L630.669 265.769C630.033 266.872 628.635 267.226 627.549 266.657L627.549 266.657C626.43 266.069 625.964 264.668 626.623 263.525L636.321 246.703C636.564 246.282 636.564 245.779 636.321 245.358L626.623 228.536C625.964 227.393 626.43 225.992 627.549 225.405Z" fill="#0095F6"/>
<path opacity="0.5" fill-rule="evenodd" clip-rule="evenodd" d="M612.723 225.405C613.809 224.835 615.206 225.189 615.843 226.292L625.541 243.114C626.586 244.928 626.586 247.133 625.541 248.947L615.843 265.769C615.206 266.872 613.809 267.226 612.723 266.657L612.723 266.657C611.603 266.069 611.138 264.668 611.797 263.525L621.495 246.703C621.738 246.282 621.738 245.779 621.495 245.358L611.797 228.536C611.138 227.393 611.603 225.992 612.723 225.405Z" fill="#0095F6"/>
<path opacity="0.2" fill-rule="evenodd" clip-rule="evenodd" d="M596.547 225.405C597.633 224.835 599.031 225.189 599.667 226.292L609.365 243.114C610.411 244.928 610.411 247.133 609.365 248.947L599.667 265.769C599.031 266.872 597.633 267.226 596.547 266.657L596.547 266.657C595.428 266.069 594.962 264.668 595.621 263.525L605.319 246.703C605.562 246.282 605.562 245.779 605.319 245.358L595.621 228.536C594.962 227.393 595.428 225.992 596.547 225.405Z" fill="#0095F6"/>
<defs>
<linearGradient id="paint0_linear" x1="-5.2657" y1="232.55" x2="464.55" y2="232.55" gradientUnits="userSpaceOnUse">
<stop stop-color="#E3F8FA"/>
<stop offset="1" stop-color="#FBD9FB"/>
</linearGradient>
<linearGradient id="paint1_linear" x1="666.768" y1="250.749" x2="157.854" y2="250.749" gradientUnits="userSpaceOnUse">
<stop stop-color="#779DA6"/>
<stop offset="1" stop-color="#93C6CB"/>
</linearGradient>
</defs>
</svg>
