<svg width="389" height="331" viewBox="0 0 389 331" fill="none" xmlns="http://www.w3.org/2000/svg">
<mask id="mask0" mask-type="alpha" maskUnits="userSpaceOnUse" x="0" y="0" width="384" height="325">
<rect width="384" height="325" rx="25" fill="white"/>
</mask>
<g mask="url(#mask0)">
<path opacity="0.3" d="M216.424 162.282L216.263 162H388.263V435H214.109L214.101 436.613L206.101 436.572L206.168 423.468C197.034 414.89 186.54 391.579 198.073 353.253C212.929 303.884 216.747 282.687 210.481 256.723C209.676 253.389 208.804 250.12 207.928 246.869L207.669 245.907C206.884 242.993 206.1 240.085 205.385 237.214C203.799 230.846 202.497 224.456 202.191 218.05C201.583 205.357 204.908 192.939 216.532 180.205L216.301 162.284L216.424 162.282Z" fill="#E6F7F9"/>
</g>
</svg>
