<svg width="389" height="331" viewBox="0 0 389 331" fill="none" xmlns="http://www.w3.org/2000/svg">
<mask id="mask0" mask-type="alpha" maskUnits="userSpaceOnUse" x="0" y="0" width="384" height="325">
<rect width="384" height="325" rx="25" fill="white"/>
</mask>
<g mask="url(#mask0)">
<path opacity="0.3" d="M201 292.065L201 546H411L411 162L231.876 162C215.409 162 208.204 174.387 208.204 182.645C208.204 188.743 212.881 195.896 215.759 199.397C216.122 199.838 216.065 200.493 215.619 200.851L212.296 203.517C211.787 203.925 211.795 204.703 212.293 205.124C216.609 208.775 223.642 217.11 223.642 227.032C223.642 240.452 201 245.613 201 265.226C201 273.488 206.676 280.668 210.284 283.971C210.776 284.421 210.747 285.221 210.202 285.604L201 292.065Z" fill="#FEFEC7"/>
</g>
</svg>
