<svg width="34" height="115" viewBox="0 0 34 115" fill="none" xmlns="http://www.w3.org/2000/svg">
<rect x="1" y="1" width="32" height="53" rx="16" stroke="#ABB0BD" stroke-width="2"/>
<rect x="16" y="1" width="2" height="15" rx="1" fill="#ABB0BD"/>
<path d="M16.2929 114.707C16.6834 115.098 17.3166 115.098 17.7071 114.707L24.0711 108.343C24.4616 107.953 24.4616 107.319 24.0711 106.929C23.6805 106.538 23.0474 106.538 22.6569 106.929L17 112.586L11.3431 106.929C10.9526 106.538 10.3195 106.538 9.92893 106.929C9.53841 107.319 9.53841 107.953 9.92893 108.343L16.2929 114.707ZM16 69L16 114L18 114L18 69L16 69Z" fill="#ABB0BD"/>
</svg>
